# xmcd
#
# Track frame offsets: 
#        300
#        23679
#        43260
#        70847
#        92787
#        110005
#        129445
#        160374
#        183336
#        199750
#        215880
#        235927
#
# Disc length: 3798 seconds
#
# Revision: 3
# Processed by: cddbd v1.5.2PL0 Copyright (c) Steve Scherf et al.
# Submitted via: ExactAudioCopy v1.0b1
#
DISCID=b00ed20c
DTITLE=Bernard Allison Group - Hang On!
DYEAR=1993
DGENRE=Modern Electric Blues
TTITLE0=Mai
TTITLE1=Going Down
TTITLE2=Cadillac Assembly Line
TTITLE3=Voodoo Thang
TTITLE4=Missing Stevie
TTITLE5=Action Speaks Louder Than Words
TTITLE6=Rockin Robin
TTITLE7=You're Hurting Me
TTITLE8=Hang On
TTITLE9=Looking Beyond The Past
TTITLE10=Idols In Mind
TTITLE11=Voodoo Chile Medley
EXTD=YEAR: 1993 ID3G: 0
EXTT0=
EXTT1=
EXTT2=
EXTT3=
EXTT4=
EXTT5=
EXTT6=
EXTT7=
EXTT8=
EXTT9=
EXTT10=
EXTT11=
PLAYORDER=
